<svg id="Layer_1" data-name="Layer 1" xmlns="http://www.w3.org/2000/svg" viewBox="0 0 405 70"><defs><style>.cls-1{fill:#fff;}.cls-2{fill:none;}</style></defs><title>soundclash_logo</title><polygon class="cls-1" points="236.75 0.84 189.02 70 189.02 69.16 236.75 0 236.75 0.84"/><path class="cls-1" d="M253.78,59V12.91h4V55.41h22.53V59H253.78Z"/><path class="cls-1" d="M321.23,59l-4.6-11.34H292L287.4,59h-4.6l19-46.1h5l19,46.1h-4.6ZM304.28,17.12l-11,27h22Z"/><path class="cls-1" d="M327.38,52.51l2.58-3a19,19,0,0,0,14.51,6.7c9.56,0,12.28-5.25,12.28-9.19,0-13.55-27.9-6.5-27.9-22.6,0-7.53,6.84-12.3,15.28-12.3,7,0,12.14,2.42,15.76,6.5l-2.65,2.9c-3.35-4-8.09-5.81-13.32-5.81-6.21,0-10.88,3.52-10.88,8.5,0,11.82,27.9,5.32,27.9,22.53,0,5.94-4,13.06-16.53,13.06C336.73,59.84,330.94,56.8,327.38,52.51Z"/><path class="cls-1" d="M400.6,59V37.1h-29.5V59h-4V12.91h4v20.6h29.5V12.91h4V59h-4Z"/><path class="cls-2" d="M232,55.41h10.88V16.5H232c-0.36,0-.71,0-1.06,0L213.51,42C215.65,49.8,222.14,55.41,232,55.41Z"/><path class="cls-1" d="M233.48,12.91L231,16.52c0.35,0,13.37,0,13.37,0l2.53-3.62H233.48Z"/><path class="cls-1" d="M242.92,55.41H232c-9.9,0-16.39-5.62-18.53-13.44l-2.85,4.15C214.14,53.78,221.71,59,232,59H246.9v-3.6h-4Z"/><path class="cls-1" d="M0.36,52.35l2.58-3a19,19,0,0,0,14.51,6.7c9.56,0,12.28-5.25,12.28-9.19,0-13.55-27.9-6.5-27.9-22.6C1.82,16.76,8.66,12,17.1,12c7,0,12.14,2.42,15.76,6.5l-2.65,2.9c-3.35-4-8.09-5.81-13.32-5.81C10.68,15.58,6,19.11,6,24.08c0,11.82,27.9,5.32,27.9,22.53,0,5.94-4,13.06-16.53,13.06C9.7,59.68,3.91,56.64.36,52.35Z"/><path class="cls-1" d="M38.35,35.83C38.35,22.36,47.28,12,60.95,12s22.6,10.37,22.6,23.85-9,23.85-22.6,23.85S38.35,49.31,38.35,35.83Zm41,0c0-11.75-7.25-20.25-18.41-20.25s-18.41,8.5-18.41,20.25,7.11,20.25,18.41,20.25S79.36,47.45,79.36,35.83Z"/><path class="cls-1" d="M90,41.16V12.75h4V41.09c0,9.33,5,15,14.09,15s14.09-5.67,14.09-15V12.75h4V41.16c0,11.4-6.14,18.52-18.13,18.52S90,52.49,90,41.16Z"/><path class="cls-1" d="M167.76,58.85l-29.3-39.61V58.85h-4V12.75h4L167.69,51.8V12.75h4v46.1h-3.91Z"/><path class="cls-2" d="M192.76,16.34H181.88V55.26h10.88c0.44,0,.86,0,1.29-0.06L211.35,30C209.27,22.09,202.79,16.34,192.76,16.34Z"/><path class="cls-1" d="M191.54,58.85L194,55.2c-0.43,0-.85.06-1.29,0.06H180.3l-2.47,3.59h13.71Z"/><path class="cls-1" d="M192.76,12.75H177.9v3.6h14.86c10,0,16.51,5.75,18.59,13.68l2.85-4.14C210.75,18.15,203.14,12.75,192.76,12.75Z"/></svg>