<svg id="Layer_1" data-name="Layer 1" xmlns="http://www.w3.org/2000/svg" viewBox="0 0 134 40"><defs><style>.cls-1{fill:#fff;}</style></defs><title>spotify_logo</title><path class="cls-1" d="M54.73,18.46c-3.45-.82-4.07-1.4-4.07-2.62s1.08-1.92,2.69-1.92a7.85,7.85,0,0,1,4.72,1.79,0.23,0.23,0,0,0,.17,0,0.22,0.22,0,0,0,.15-0.09l1.69-2.38A0.23,0.23,0,0,0,60,13a10.2,10.2,0,0,0-6.63-2.3c-3.73,0-6.33,2.24-6.33,5.44,0,3.43,2.25,4.65,6.13,5.59,3.3,0.76,3.86,1.4,3.86,2.54s-1.13,2-2.94,2A7.93,7.93,0,0,1,48.62,24,0.24,0.24,0,0,0,48.45,24a0.22,0.22,0,0,0-.16.08L46.4,26.31a0.22,0.22,0,0,0,0,.31A11.27,11.27,0,0,0,54,29.54c4,0,6.61-2.2,6.61-5.59C60.65,21.07,58.94,19.49,54.73,18.46Z"/><path class="cls-1" d="M69.74,15.06a5.42,5.42,0,0,0-4.35,2.09V15.57a0.23,0.23,0,0,0-.23-0.23H62.08a0.23,0.23,0,0,0-.23.23V33.15a0.23,0.23,0,0,0,.23.23h3.09a0.23,0.23,0,0,0,.23-0.23V27.6a5.55,5.55,0,0,0,4.35,2c3.24,0,6.51-2.49,6.51-7.25S73,15.06,69.74,15.06Zm2.92,7.25c0,2.42-1.49,4.12-3.63,4.12a3.84,3.84,0,0,1-3.71-4.12A3.84,3.84,0,0,1,69,18.2C71.13,18.2,72.66,19.93,72.66,22.31Z"/><path class="cls-1" d="M84.65,15.06a7.27,7.27,0,1,0,7.41,7.25A7.29,7.29,0,0,0,84.65,15.06Zm0,11.4a3.93,3.93,0,0,1-3.89-4.14,3.84,3.84,0,0,1,3.84-4.09,3.94,3.94,0,0,1,3.91,4.14A3.85,3.85,0,0,1,84.65,26.45Z"/><path class="cls-1" d="M101,15.34h-3.4V11.86a0.23,0.23,0,0,0-.23-0.23H94.24a0.23,0.23,0,0,0-.23.23v3.48H92.52a0.23,0.23,0,0,0-.23.23v2.66a0.23,0.23,0,0,0,.23.23H94v6.88c0,2.78,1.38,4.19,4.11,4.19a5.64,5.64,0,0,0,2.9-.72,0.23,0.23,0,0,0,.11-0.2V26.07a0.23,0.23,0,0,0-.33-0.2A3.9,3.9,0,0,1,99,26.3a1.25,1.25,0,0,1-1.43-1.46V18.45H101a0.23,0.23,0,0,0,.23-0.23V15.57A0.23,0.23,0,0,0,101,15.34Z"/><path class="cls-1" d="M112.81,15.35V14.93c0-1.26.48-1.82,1.56-1.82a5.22,5.22,0,0,1,1.74.32,0.23,0.23,0,0,0,.3-0.22V10.61a0.23,0.23,0,0,0-.16-0.22,8.49,8.49,0,0,0-2.57-.37c-2.86,0-4.37,1.61-4.37,4.65v0.65h-1.49a0.23,0.23,0,0,0-.23.23v2.67a0.23,0.23,0,0,0,.23.23h1.49V29.06a0.23,0.23,0,0,0,.23.23h3.09a0.23,0.23,0,0,0,.23-0.23V18.45h2.89l4.42,10.6c-0.5,1.11-1,1.34-1.67,1.34a3.57,3.57,0,0,1-1.7-.48,0.23,0.23,0,0,0-.18,0,0.23,0.23,0,0,0-.13.12l-1,2.3a0.22,0.22,0,0,0,.1.29,6.51,6.51,0,0,0,3.3.85c2.28,0,3.54-1.06,4.66-3.92l5.36-13.86a0.23,0.23,0,0,0-.21-0.31h-3.22a0.23,0.23,0,0,0-.21.15l-3.3,9.42L118.3,15.5a0.23,0.23,0,0,0-.21-0.15h-5.28Z"/><rect class="cls-1" x="102.62" y="15.34" width="3.55" height="13.94" rx="0.23" ry="0.23"/><circle class="cls-1" cx="104.41" cy="11.42" r="2.22"/><path class="cls-1" d="M131.5,19.68a2.18,2.18,0,1,1,2.19-2.19A2.17,2.17,0,0,1,131.5,19.68Zm0-4.15a2,2,0,1,0,1.95,2A1.95,1.95,0,0,0,131.51,15.53ZM132,17.71l0.62,0.86h-0.52l-0.55-.79h-0.48v0.79h-0.43V16.29h1a0.76,0.76,0,0,1,.88.73A0.68,0.68,0,0,1,132,17.71Zm-0.37-1h-0.57V17.4h0.57a0.38,0.38,0,0,0,.45-0.36A0.37,0.37,0,0,0,131.62,16.68Z"/><path class="cls-1" d="M20.5,0.24a20,20,0,1,0,20,20A20,20,0,0,0,20.5.24Zm9.17,28.85A1.25,1.25,0,0,1,28,29.5c-4.7-2.87-10.61-3.52-17.57-1.93a1.25,1.25,0,1,1-.55-2.43c7.62-1.74,14.15-1,19.43,2.23A1.25,1.25,0,0,1,29.67,29.09Zm2.45-5.45a1.56,1.56,0,0,1-2.14.51C24.6,20.85,16.4,19.9,10,21.83a1.56,1.56,0,1,1-.91-3c7.26-2.2,16.29-1.14,22.47,2.66A1.56,1.56,0,0,1,32.12,23.64ZM32.33,18c-6.45-3.83-17.08-4.18-23.24-2.31A1.87,1.87,0,1,1,8,12.08c7.06-2.14,18.81-1.73,26.23,2.68A1.87,1.87,0,0,1,32.33,18Z"/></svg>