<svg id="Layer_1" data-name="Layer 1" xmlns="http://www.w3.org/2000/svg" viewBox="0 0 31 30"><defs><style>.cls-1{fill:#fff;}</style></defs><title>create</title><path class="cls-1" d="M30.48,21.86L30.43,3A1,1,0,0,0,30,2.19,1,1,0,0,0,29.19,2L13.26,6a1,1,0,0,0-.75,1l0,15.4A4.56,4.56,0,0,0,10,22.23c-2.48.5-4.49,2.62-4.49,4.74s2,3.43,4.49,2.93a5.65,5.65,0,0,0,4.4-4,0.91,0.91,0,0,0,.11-0.42L14.32,11.56,28.48,8.13V19.4A4.6,4.6,0,0,0,26,19.26c-2.49.5-4.5,2.62-4.5,4.74s2,3.43,4.5,2.93,4.5-2.62,4.5-4.74A3,3,0,0,0,30.48,21.86Z"/><path class="cls-1" d="M9.48,4h-3V1a1,1,0,1,0-2,0V4h-3a1,1,0,0,0,0,2h3V9a1,1,0,1,0,2,0V6h3A1,1,0,0,0,9.48,4Z"/></svg>