<svg id="Layer_1" data-name="Layer 1" xmlns="http://www.w3.org/2000/svg" viewBox="0 0 30 30"><defs><style>.cls-1{fill:#121314;opacity:0.9;}.cls-2{fill:#fff;}</style></defs><title>play</title><g id="_Group_" data-name="&lt;Group&gt;"><path class="cls-1" d="M15,0.15A14.85,14.85,0,1,1,.15,15,14.85,14.85,0,0,1,15,.15Z"/><path class="cls-2" d="M15,1.25A13.75,13.75,0,1,1,1.25,15,13.77,13.77,0,0,1,15,1.25M15,0A15,15,0,1,0,30,15,15,15,0,0,0,15,0h0Z"/><path class="cls-2" d="M12.69,9.35c-0.6-.36-1.08-0.13-1.08.51V20.14c0,0.64.49,0.86,1.08,0.5l8.28-5a0.7,0.7,0,0,0,0-1.31Z"/></g></svg>