<svg id="Layer_1" data-name="Layer 1" xmlns="http://www.w3.org/2000/svg" viewBox="0 0 30 30"><defs><style>.cls-1{fill:#fff;}</style></defs><title>register</title><path class="cls-1" d="M27.53,22.79a25.2,25.2,0,0,0-5.06-2.24A10,10,0,0,1,15,24.39,9.87,9.87,0,0,1,7.47,20.5a23.58,23.58,0,0,0-5,2.25A5.9,5.9,0,0,0,0,27.17,2.88,2.88,0,0,0,2.92,30H27.08A2.88,2.88,0,0,0,30,27.17,5.78,5.78,0,0,0,27.53,22.79Z"/><path class="cls-1" d="M23.57,9.18c0,5.92-3.84,12.24-8.57,12.24S6.43,15.1,6.43,9.18,10.27,0,15,0,23.57,3.27,23.57,9.18Z"/></svg>